<?xml version="1.0" encoding="utf-8"?>
<!-- Generator: Adobe Illustrator 26.0.0, SVG Export Plug-In . SVG Version: 6.00 Build 0)  -->
<svg version="1.1" id="Layer_1" xmlns="http://www.w3.org/2000/svg" xmlns:xlink="http://www.w3.org/1999/xlink" x="0px" y="0px"
	 viewBox="0 0 850.4 850.4" style="enable-background:new 0 0 850.4 850.4;" xml:space="preserve">
<g>
	<path d="M53.4,675.8h729.1V205.2H53.4V675.8z M64.9,216.2h706.1v448.5H64.9V216.2z" fill="#fff"/>
	<path d="M794.8,177.8H41.2c-11.8,0-21.4,9.6-21.4,21.5v495.6c0,11.8,9.6,21.4,21.5,21.5h262c2,8.9,2.8,17.9,2.4,27l-0.2,5.4
		c-0.3,4.5-0.9,9-1.7,13.4c-4.4,24.2-41.8,29.3-42.1,29.3v0.4h-22.9c-11.8,0-21.4,9.6-21.5,21.5v15.7c0,11.8,9.6,21.4,21.5,21.5
		h358.4c11.8,0,21.4-9.6,21.5-21.5v-15.7c0-11.8-9.6-21.4-21.5-21.5h-22.9v-0.4c-0.4,0-37.7-5-42.1-29.3c-1.1-6.2-1.8-12.5-1.9-18.8
		c-0.3-9.1,0.5-18.1,2.5-27h262c11.8,0,21.4-9.6,21.5-21.5V199.2C816.2,187.4,806.6,177.8,794.8,177.8z M597.2,803.3
		c5.5,0,9.9,4.4,9.9,9.9v15.7c0,5.5-4.5,9.9-9.9,9.9H238.8c-5.5,0-9.9-4.5-9.9-9.9v-15.7c0-5.5,4.5-9.9,9.9-9.9H597.2z M541.3,791.8
		H294.7c9.5-5.8,18-14.6,20.4-27.7c0.9-4.9,1.5-9.9,1.8-14.9h202.2c0.3,5,0.9,10,1.8,14.9C523.3,777.2,531.8,785.9,541.3,791.8z
		 M315.2,717.8h205.6c-0.2,0.6-0.2,1.2-0.3,1.8c-0.1,0.4-0.2,0.8-0.2,1.2c-0.2,0.9-0.3,1.8-0.4,2.7c0,0.2,0,0.4-0.1,0.6
		c-0.3,2.2-0.5,4.5-0.7,6.7c0,0.1,0,0.2,0,0.3c-0.1,1-0.1,2-0.2,3v0.8c0,0.9-0.1,1.7-0.1,2.6c0,0.1,0,0.1,0,0.2H317.2
		C317.1,731,316.4,724.4,315.2,717.8z M804.7,694.8c0,5.5-4.5,9.9-9.9,9.9H41.2c-5.5,0-9.9-4.5-9.9-9.9V199.2c0-5.5,4.5-9.9,9.9-9.9
		h753.6c5.5,0,9.9,4.5,9.9,9.9L804.7,694.8z" fill="#fff"/>
</g>
</svg>
