<?xml version="1.0" encoding="utf-8"?>
<!-- Generator: Adobe Illustrator 26.0.0, SVG Export Plug-In . SVG Version: 6.00 Build 0)  -->
<svg version="1.1" id="Layer_1" xmlns="http://www.w3.org/2000/svg" xmlns:xlink="http://www.w3.org/1999/xlink" x="0px" y="0px"
	 viewBox="0 0 850.4 850.4" style="enable-background:new 0 0 850.4 850.4;" xml:space="preserve">
<style type="text/css">
	.st0{fill:#514897;}
</style>
<g id="ICONS">
	<path class="st0" d="M211.8,532.9v0.7l55.2,23.2v31L182.3,546v-26.3L267,478v31L211.8,532.9z"/>
	<path class="st0" d="M367,609.6h-23.4l49.5-181h23.5L367,609.6z"/>
	<path class="st0" d="M546.7,533.2v-0.7L490.9,509v-31l85.3,41.7v26.3l-85.3,41.8v-30.9L546.7,533.2z"/>
	<path d="M53.6,681h632.7V304.2H53.6V681z M62.1,312.6h615.8v47.2H62.1V312.6z M62.1,368.3h615.8v304.3H62.1V368.3z"/>
	<path d="M90.7,319.4c-8.6,0-15.5,6.9-15.5,15.5s6.9,15.5,15.5,15.5s15.5-6.9,15.5-15.5l0,0C106.2,326.3,99.2,319.4,90.7,319.4z
		 M90.7,341.9c-3.9,0-7-3.1-7-7s3.1-7,7-7s7,3.1,7,7S94.5,341.9,90.7,341.9z"/>
	<path d="M127,319.4c-8.6,0-15.5,6.9-15.5,15.5s6.9,15.5,15.5,15.5s15.5-6.9,15.5-15.5l0,0C142.5,326.3,135.5,319.4,127,319.4z
		 M127,341.9c-3.9,0-7-3.1-7-7s3.1-7,7-7c3.9,0,7,3.1,7,7S130.9,341.9,127,341.9z"/>
</g>
<path d="M715.5,457.1v-8.4V300.5c-0.9-9.8-5.2-19-12.2-26c-7.9-7.9-18.6-12.3-29.7-12.3H69.9c-23.2,0.1-42,18.9-42,42v395.2H0V729
	c0,12.1,18.1,21.2,42,21.2h659.4c24,0,42-9.1,42-21.2v-29.6h-27.9 M36.3,304.2c0-18.5,15-33.5,33.6-33.6h603.6
	c18.5,0,33.6,15,33.6,33.6v395.2H36.3V304.2z M735,729.1c0,5.3-12.8,12.8-33.6,12.8H42c-20.8,0-33.6-7.4-33.6-12.8v-21.2H735V729.1z
	"/>
</svg>
