<?xml version="1.0" encoding="utf-8"?>
<!-- Generator: Adobe Illustrator 26.0.0, SVG Export Plug-In . SVG Version: 6.00 Build 0)  -->
<svg version="1.1" id="Layer_1" xmlns="http://www.w3.org/2000/svg" xmlns:xlink="http://www.w3.org/1999/xlink" x="0px" y="0px"
	 viewBox="0 0 850.4 850.4" style="enable-background:new 0 0 850.4 850.4;" xml:space="preserve">
<g id="ICONS">
	<path d="M53.6,681h632.7V304.2H53.6V681z M62.1,312.6h615.8v47.2H62.1V312.6z M62.1,368.3h615.8v304.3H62.1V368.3z"/>
	<path d="M90.7,319.4c-8.6,0-15.5,6.9-15.5,15.5c0,8.6,6.9,15.5,15.5,15.5s15.5-6.9,15.5-15.5l0,0
		C106.2,326.3,99.2,319.4,90.7,319.4z M90.7,341.9c-3.9,0-7-3.1-7-7s3.1-7,7-7s7,3.1,7,7S94.5,341.9,90.7,341.9z"/>
	<path d="M127,319.4c-8.6,0-15.5,6.9-15.5,15.5c0,8.6,6.9,15.5,15.5,15.5s15.5-6.9,15.5-15.5c0,0,0,0,0,0
		C142.5,326.3,135.5,319.4,127,319.4z M127,341.9c-3.9,0-7-3.1-7-7s3.1-7,7-7c3.9,0,7,3.1,7,7S130.9,341.9,127,341.9z"/>
	<path d="M69.9,262.2c-23.2,0.1-42,18.9-42,42v395.2H0v29.6c0,12.1,18.1,21.2,42,21.2h659.4c24,0,42-9.1,42-21.2v-29.6h-27.9v-85
		h2.8v-9.7h-2.8v-156c0.8-0.2,1.6-0.4,2.5-0.6l2.7-0.7l3.6-27.2l23.5-9.5l21.9,17l2.5-1.5c7.9-4.8,15.3-10.4,22.1-16.6l2.2-2
		L786.3,382l15.5-20l27.4,3.6l1.4-2.6c4.4-8.3,8.1-16.9,11-25.8l1-2.8l-21.9-17l4-24.5l25.7-10.4l-0.2-3.1
		c-0.6-9.2-1.8-18.4-3.7-27.4l-0.6-3l-27.4-3.7l-9.5-23.5l17-21.9l-1.5-2.5c-4.8-7.9-10.4-15.3-16.6-22.1l-2-2.2l-25.6,10.3
		l-20-15.5l3.6-27.1l-4-2.7l-0.6-0.3c-7.7-3.6-15.7-7.3-23.8-9.8l-2.8-0.9l-17,21.9l-25-3.5l-10.4-26.3l-3.1,0.2
		c-9,0.6-18.2,1.2-27.4,3l-3,0.6l-3.7,27.5L619,160.8l-21.9-17l-2.5,1.6c-7.9,4.8-15.3,10.4-22.1,16.6l-2.2,2l7.8,19.3h-0.6v9.7h0.5
		l-12.9,16.6l-27.4-3.6l-1.4,2.6c-4.4,8.3-8.1,16.9-11,25.8l-1,2.8l21.9,17.1l-1.1,8 M36.3,304.2c0-18.5,15-33.5,33.6-33.6h603.6
		c18.5,0,33.6,15,33.6,33.6v395.2H36.3V304.2z M735,707.9v21.2c0,5.3-12.8,12.8-33.6,12.8H42c-20.8,0-33.6-7.4-33.6-12.8v-21.2H735z
		 M703.3,274.5c-7.9-7.9-18.6-12.3-29.7-12.3h-74.6c13-47,61.7-74.6,108.7-61.6c47,13,74.6,61.7,61.6,108.7
		c-7.5,27.1-27.4,48.9-53.6,59v-64.1C715.6,293.1,711.2,282.4,703.3,274.5z M832.6,337.4c-2.3,6.5-5,12.9-8.1,19l-26.4-3.5
		l-21.5,27.8l9.9,24.6c-5.1,4.4-10.5,8.5-16.2,12.1l-21.1-16.4l-32.6,13.2l-1.1,8v-44.8c50.6-17.4,77.5-72.5,60.1-123.1
		c-17.4-50.6-72.5-77.5-123.1-60.1c-31,10.7-54.5,36.2-62.4,68h-36.4l1.6-11.7l-21-16.4c2.3-6.5,5-12.9,8.1-19l26.3,3.5l21.5-27.8
		l-10-24.6c5.1-4.4,10.5-8.5,16.2-12.1l21.1,16.4l33.2-13.8l3.5-26.2c6.7-1.1,13.5-1.8,20.3-2.2l9.9,25.1l34.7,4.9l16.4-21.1
		c6.3,2.2,12.7,5.1,19,8l-3.5,26.5l27.7,21.5l24.6-9.9c4.4,5.1,8.5,10.5,12.1,16.2l-16.4,21.1l13.2,32.6l26.3,3.5
		c1.2,6.7,2.1,13.5,2.7,20.3l-24.4,9.9l-5.6,34.1L832.6,337.4z"/>
</g>
</svg>
